<svg width="200" height="56" viewBox="0 0 200 56" fill="none" xmlns="http://www.w3.org/2000/svg">
<path d="M54.9804 22.1375C53.0067 21.3386 50.7341 20.9014 48.6028 20.9014C46.1989 20.9014 43.8048 21.411 41.611 22.4004C37.992 24.0277 35.0429 26.8843 33.2991 30.4412C32.3894 32.2986 31.9296 34.34 31.0955 36.2335C29.8705 39.0376 28.2482 41.4472 26.3664 43.2749C25.7687 43.8436 25.1546 44.363 24.5142 44.8101C22.6522 46.102 20.2909 47.0159 17.9986 47.0159C13.1087 47.0159 8.95762 42.9133 8.95762 37.9659C8.95762 34.8101 10.5767 32.029 13.0299 30.4149C15.4535 28.8206 18.8229 28.4951 21.4863 29.6194C20.2909 27.5878 19.6111 25.2308 19.6111 22.7095C19.6111 22.1243 19.6472 21.5556 19.7293 20.9935C20.4354 15.267 24.6981 10.6286 30.2285 9.35636C31.2137 9.12296 32.2416 9.00462 33.2991 9.00462C35.5027 9.00462 37.5749 9.52402 39.4206 10.4576C40.9181 11.2038 42.2514 12.2163 43.3746 13.4392C43.8475 13.952 44.2711 14.5043 44.6619 15.0829L51.2957 10.6286C49.8442 8.4655 48.0215 6.56872 45.9 5.05326C42.6061 2.67982 38.6127 1.22025 34.3007 1.02959C33.9723 1.00657 33.6373 1 33.3024 1C30.2745 1 27.3845 1.6213 24.7638 2.75214C17.2039 6.0033 11.8476 13.4458 11.6276 22.1375C7.90672 23.6431 4.83284 26.4241 2.9675 29.9383C1.68343 32.3347 0.960938 35.0665 0.960938 37.9659C0.960938 46.7759 7.63086 54.0212 16.1826 54.9252C16.2417 54.9317 16.3073 54.9383 16.3665 54.9383C16.5931 54.9613 16.8197 54.9811 17.0463 54.9909C17.089 54.9975 17.1251 54.9975 17.1645 54.9975C17.4403 55.0106 17.7195 55.0205 18.0052 55.0205C18.2909 55.0205 18.5668 55.0139 18.8459 54.9975C18.8821 54.9975 18.9182 54.9975 18.9642 54.9909C19.1908 54.9843 19.4174 54.9613 19.644 54.9383C19.7096 54.9383 19.7687 54.9317 19.8279 54.9252C22.7178 54.6392 25.46 53.6628 27.9625 52.1145C30.1891 50.747 32.2153 48.9291 34.0051 46.7595C34.6488 45.9771 35.2662 45.1618 35.8278 44.2775C38.4124 40.2078 38.7867 38.4261 40.0018 35.1848C41.5585 31.0297 44.8196 28.9192 48.6126 28.9192C50.3433 28.9192 52.1496 29.4616 53.588 30.4182C56.0313 32.0389 57.6537 34.8166 57.6537 37.9692C57.6537 42.9593 53.5978 47.0192 48.6126 47.0192C47.0133 47.0192 45.5125 46.6017 44.2054 45.8653C43.2793 47.5583 42.2514 49.1658 41.1053 50.678C40.6389 51.2993 40.1496 51.8976 39.6537 52.4761C42.258 54.0968 45.3319 55.0238 48.6159 55.0238C58.0215 55.0238 65.6536 47.3906 65.6536 37.9692C65.6536 30.8028 61.2399 24.6687 54.9936 22.1407L54.9804 22.1375Z" fill="black"/>
<path d="M139.205 5.53516H130.805V50.4925H139.205V5.53516Z" fill="black"/>
<path d="M199.487 5.53516H191.086V50.4925H199.487V5.53516Z" fill="black"/>
<path d="M145.533 5.53516H137.133L147.451 50.4925H155.855L145.533 5.53516Z" fill="black"/>
<path d="M180.776 5.53516H172.375V50.4925H180.776V5.53516Z" fill="black"/>
<path d="M164.252 50.4925H155.852L166.17 5.53516H174.571L164.252 50.4925Z" fill="black"/>
<path d="M122.107 27.2109V35.14C122.087 35.1662 122.068 35.1893 122.048 35.2156H97.8281V27.2109H122.11H122.107Z" fill="black"/>
<path d="M122.113 35.2176V45.6713C117.016 49.2808 110.504 51.4668 103.758 51.4668C86.3595 51.4668 75.2266 40.9178 75.2266 27.9033C75.2266 14.8888 85.2955 4.33984 103.758 4.33984C110.33 4.33984 116.918 6.59494 122.113 10.3096V20.7764C118.297 15.9671 111.075 12.3445 103.758 12.3445C90.9145 12.3445 83.1444 18.4556 83.1444 27.9033C83.1444 37.3511 91.5056 43.4622 103.758 43.4622C111.144 43.4622 118.258 39.9678 122.051 35.2176H122.11H122.113Z" fill="black"/>
</svg>
